# Blender v2.80 (sub 57) OBJ File: 'test.blend'
# www.blender.org
mtllib testobj.mtl
o Plane
v -0.520665 -0.448768 0.313865
v 0.510066 -0.448768 0.313865
v -0.005299 -0.448768 -0.716865
v -0.005299 0.431856 -0.029711
vt 0.748907 1.000002
vt 0.501109 0.000509
vt 0.998131 -0.000012
vt 0.748840 0.999956
vt 0.500441 0.000142
vt 0.253084 0.999976
vt 0.003031 0.000364
vn 0.0000 -1.0000 0.0000
vn 0.8445 0.3295 -0.4222
vn 0.0000 0.3635 0.9316
vn -0.8445 0.3295 -0.4222
usemtl Material.001
s off
f 1/1/1 3/2/1 2/3/1
f 2/3/2 3/4/2 4/5/2
f 1/6/3 2/7/3 4/5/3
f 3/4/4 1/6/4 4/5/4
